<svg width="112" height="30" viewBox="0 0 112 30" fill="none" xmlns="http://www.w3.org/2000/svg">
<path d="M46.3125 24C46.2292 23.8333 46.1615 23.5365 46.1094 23.1094C45.4375 23.8073 44.6354 24.1562 43.7031 24.1562C42.8698 24.1562 42.1849 23.9219 41.6484 23.4531C41.1172 22.9792 40.8516 22.3802 40.8516 21.6562C40.8516 20.776 41.1849 20.0938 41.8516 19.6094C42.5234 19.1198 43.4661 18.875 44.6797 18.875H46.0859V18.2109C46.0859 17.7057 45.9349 17.3047 45.6328 17.0078C45.3307 16.7057 44.8854 16.5547 44.2969 16.5547C43.7812 16.5547 43.349 16.6849 43 16.9453C42.651 17.2057 42.4766 17.5208 42.4766 17.8906H41.0234C41.0234 17.4688 41.1719 17.0625 41.4688 16.6719C41.7708 16.276 42.1771 15.9635 42.6875 15.7344C43.2031 15.5052 43.7682 15.3906 44.3828 15.3906C45.3568 15.3906 46.1198 15.6354 46.6719 16.125C47.224 16.6094 47.5104 17.2786 47.5312 18.1328V22.0234C47.5312 22.7995 47.6302 23.4167 47.8281 23.875V24H46.3125ZM43.9141 22.8984C44.3672 22.8984 44.7969 22.7812 45.2031 22.5469C45.6094 22.3125 45.9036 22.0078 46.0859 21.6328V19.8984H44.9531C43.1823 19.8984 42.2969 20.4167 42.2969 21.4531C42.2969 21.9062 42.4479 22.2604 42.75 22.5156C43.0521 22.7708 43.4401 22.8984 43.9141 22.8984ZM52.1672 24H50.7219V12H52.1672V24ZM58.7953 24.1562C57.6495 24.1562 56.7172 23.7812 55.9984 23.0312C55.2797 22.276 54.9203 21.2682 54.9203 20.0078V19.7422C54.9203 18.9036 55.0792 18.1562 55.3969 17.5C55.7198 16.8385 56.1677 16.3229 56.7406 15.9531C57.3188 15.5781 57.9438 15.3906 58.6156 15.3906C59.7146 15.3906 60.5688 15.7526 61.1781 16.4766C61.7875 17.2005 62.0922 18.237 62.0922 19.5859V20.1875H56.3656C56.3865 21.0208 56.6286 21.6953 57.0922 22.2109C57.5609 22.7214 58.1547 22.9766 58.8734 22.9766C59.3839 22.9766 59.8161 22.8724 60.1703 22.6641C60.5245 22.4557 60.8344 22.1797 61.1 21.8359L61.9828 22.5234C61.2745 23.612 60.212 24.1562 58.7953 24.1562ZM58.6156 16.5781C58.0323 16.5781 57.5427 16.7917 57.1469 17.2188C56.751 17.6406 56.5063 18.2344 56.4125 19H60.6469V18.8906C60.6052 18.1562 60.4073 17.5885 60.0531 17.1875C59.699 16.7812 59.2198 16.5781 58.6156 16.5781ZM65.9312 15.5469L65.9703 16.4844C66.5901 15.7552 67.426 15.3906 68.4781 15.3906C69.6604 15.3906 70.4651 15.8438 70.8922 16.75C71.1734 16.3438 71.538 16.0156 71.9859 15.7656C72.4391 15.5156 72.9729 15.3906 73.5875 15.3906C75.4417 15.3906 76.3844 16.3724 76.4156 18.3359V24H74.9703V18.4219C74.9703 17.8177 74.8323 17.3672 74.5562 17.0703C74.2802 16.7682 73.8167 16.6172 73.1656 16.6172C72.6292 16.6172 72.1839 16.7786 71.8297 17.1016C71.4755 17.4193 71.2698 17.849 71.2125 18.3906V24H69.7594V18.4609C69.7594 17.2318 69.1578 16.6172 67.9547 16.6172C67.0068 16.6172 66.3583 17.0208 66.0094 17.8281V24H64.5641V15.5469H65.9312ZM81.6219 16.4531C82.1844 15.7448 82.9031 15.3906 83.7781 15.3906C84.7104 15.3906 85.4135 15.6667 85.8875 16.2188C86.3615 16.7708 86.6036 17.5859 86.6141 18.6641V24H83.9734V18.7266C83.9734 18.2786 83.8823 17.9505 83.7 17.7422C83.5177 17.5286 83.2078 17.4219 82.7703 17.4219C82.2286 17.4219 81.8458 17.5938 81.6219 17.9375V24H78.9891V12H81.6219V16.4531ZM92.9688 24.1562C91.6719 24.1562 90.6224 23.7708 89.8203 23C89.0182 22.224 88.6172 21.2161 88.6172 19.9766V19.7578C88.6172 18.8932 88.776 18.1302 89.0938 17.4688C89.4167 16.8073 89.8854 16.2969 90.5 15.9375C91.1146 15.5729 91.8438 15.3906 92.6875 15.3906C93.875 15.3906 94.8125 15.7604 95.5 16.5C96.1875 17.2344 96.5312 18.2604 96.5312 19.5781V20.6016H91.2969C91.3906 21.0755 91.5964 21.4479 91.9141 21.7188C92.2318 21.9896 92.6432 22.125 93.1484 22.125C93.9818 22.125 94.6328 21.8333 95.1016 21.25L96.3047 22.6719C95.9766 23.125 95.5104 23.487 94.9062 23.7578C94.3073 24.0234 93.6615 24.1562 92.9688 24.1562ZM92.6719 17.4219C91.901 17.4219 91.4427 17.9323 91.2969 18.9531H93.9531V18.75C93.9635 18.3281 93.8568 18.0026 93.6328 17.7734C93.4089 17.5391 93.0885 17.4219 92.6719 17.4219ZM101.175 24H98.5344V12H101.175V24ZM111.452 19.8359C111.452 21.1484 111.155 22.1979 110.561 22.9844C109.972 23.7656 109.176 24.1562 108.17 24.1562C107.394 24.1562 106.756 23.8724 106.256 23.3047V27.25H103.623V15.5469H106.084L106.162 16.3281C106.668 15.7031 107.332 15.3906 108.155 15.3906C109.196 15.3906 110.006 15.776 110.584 16.5469C111.162 17.3125 111.452 18.3672 111.452 19.7109V19.8359ZM108.819 19.6719C108.819 18.1719 108.381 17.4219 107.506 17.4219C106.881 17.4219 106.465 17.6458 106.256 18.0938V21.4219C106.485 21.8906 106.907 22.125 107.522 22.125C108.36 22.125 108.793 21.401 108.819 19.9531V19.6719Z" fill="black"/>
<path d="M21.1124 26.9583V19.0351H23.7533V29.5996H0V19.0351H2.64091V26.9583H21.1124Z" fill="#BCBBBC"/>
<path d="M5.28485 24.317H18.4894V21.6761H5.28485V24.317ZM17.1194 2.86102e-05L15.0004 1.57607L22.881 12.1713L25 10.5952L17.1194 2.86102e-05ZM10.5693 6.24648L20.7159 14.6969L22.4059 12.6675L12.2594 4.21713L10.5693 6.24648ZM7.25687 12.1189L19.227 17.6937L20.3419 15.2997L8.3718 9.7249L7.25687 12.1189ZM5.54707 18.3063L18.4694 21.0222L19.0126 18.4377L6.09023 15.7218L5.54707 18.3063Z" fill="#F48023"/>
</svg>
